<svg width="157" height="47" viewBox="0 0 157 47" fill="none" xmlns="http://www.w3.org/2000/svg">
<path d="M11.8046 17.3759C12.8417 14.8442 15.087 15.0667 16.2925 16.3953C17.4467 17.6674 15.8679 19.5323 15.2369 20.665C16.2167 21.0035 17.7366 21.6692 18.5351 22.2002C19.5295 22.9834 19.7582 24.2518 19.0521 25.2155C18.4266 26.0692 17.8478 26.4122 16.4252 25.8813C15.6024 25.5526 14.2723 25.1481 13.3869 24.8555C12.3223 27.062 11.316 29.2358 10.3966 31.4783C9.88235 32.7334 8.90943 34.5347 8.59185 35.7821C8.36182 36.6431 8.31595 37.525 8.45494 38.3958C8.8038 40.5327 10.947 42.8448 14.0131 42.4257C16.8047 42.0442 17.4246 40.7023 18.23 39.2186C19.0354 37.7349 23.3767 38.1581 23.3767 38.1581C22.2509 41.3486 21.2287 44.2083 17.0952 46.2465C15.6538 46.9568 12.8748 47.0679 11.2486 46.6843C8.8594 46.1221 6.69326 44.6287 5.59803 42.9838C3.79535 40.2777 3.39368 36.819 4.47987 33.9162C4.93158 32.7084 5.55217 31.527 6.0699 30.3358C7.16582 27.8313 8.29302 25.3337 9.45218 22.8444C10.2701 21.0299 11.0547 19.2064 11.8046 17.3759Z" fill="#FF6600"/>
<path d="M31.4437 21.194C33.1601 23.3245 31.8812 25.1834 30.1357 25.5977C28.4645 25.9943 27.5935 23.7114 26.9062 22.6119C26.1367 23.3066 24.82 24.3162 23.9695 24.7592C22.8035 25.252 21.5823 24.8399 21.0792 23.7562C20.6336 22.7963 20.6126 22.1238 21.7644 21.1343C22.4495 20.5725 23.4458 19.6029 24.1295 18.9688C22.7112 16.9712 21.2933 15.0405 19.7732 13.1527C18.9224 12.0964 17.8146 10.3748 16.8755 9.49443C16.2325 8.8773 15.4824 8.41138 14.6527 8.11272C12.6129 7.38657 9.5534 8.14726 8.44015 11.0347C7.42656 13.6636 8.30249 14.8543 9.21299 16.2759C10.1235 17.6976 7.65698 21.2951 7.65698 21.2951C5.40645 18.7689 3.39563 16.4931 3.60618 11.8892C3.68003 10.2841 4.92432 7.79667 6.04533 6.55776C7.69113 4.73684 10.0447 3.56084 12.014 3.39583C15.2542 3.12358 18.477 4.4416 20.4947 6.79421C21.3344 7.77289 22.0694 8.88672 22.8626 9.91516C24.5269 12.0841 26.17 14.277 27.7903 16.4939C28.9845 18.0862 30.2026 19.6536 31.4437 21.194Z" fill="#FF6600"/>
<path d="M18.4601 36.7403C15.7742 37.2606 14.7295 35.2607 15.1799 33.5242C15.6112 31.8616 18.0364 32.1598 19.3297 32.0666C19.0756 31.0615 18.7993 29.4255 18.8057 28.4666C18.9156 27.2055 19.8511 26.319 21.0442 26.3813C22.1011 26.4364 22.7053 26.7326 23.041 28.2134C23.2171 29.0817 23.6079 30.4159 23.8486 31.3168C26.2776 30.9978 28.6473 30.6478 31.0269 30.1875C32.3585 29.9297 34.3983 29.756 35.6157 29.3379C36.462 29.0583 37.2247 28.6132 37.8768 28.0197C39.4729 26.5565 40.2318 23.4966 38.2006 21.1619C36.3513 19.0362 34.8892 19.2534 33.2067 19.393C31.5243 19.5327 29.4986 15.6697 29.4986 15.6697C32.7841 14.8624 35.7362 14.1499 39.7068 16.4898C41.0909 17.3059 42.7072 19.5693 43.2778 21.1397C44.1172 23.4461 44.0556 26.0765 43.2801 27.8942C42.005 30.8853 39.3323 33.1171 36.3091 33.7998C35.0513 34.0841 33.7231 34.2126 32.443 34.4325C29.7475 34.8888 27.0407 35.3152 24.3233 35.7102C22.3574 36.0207 20.4021 36.364 18.4601 36.7403Z" fill="#4E148C"/>
<path d="M54.4101 32.8938C53.4234 32.8938 52.4596 32.7647 51.5184 32.5067C50.5773 32.2486 49.8259 31.9223 49.2643 31.5276L50.3572 29.3645C50.9037 29.7288 51.5564 30.0248 52.3153 30.2525C53.0895 30.4651 53.8485 30.5713 54.5923 30.5713C56.2924 30.5713 57.1424 30.1235 57.1424 29.2279C57.1424 28.8029 56.9223 28.5069 56.4821 28.3399C56.0571 28.173 55.3664 28.0136 54.4101 27.8618C53.4083 27.71 52.5886 27.5354 51.951 27.3381C51.3287 27.1408 50.7822 26.7992 50.3117 26.3135C49.8563 25.8126 49.6286 25.1219 49.6286 24.2415C49.6286 23.0879 50.1067 22.1695 51.063 21.4864C52.0345 20.7882 53.34 20.439 54.9793 20.439C55.8142 20.439 56.6491 20.5377 57.4839 20.735C58.3188 20.9172 59.0019 21.1677 59.5332 21.4864L58.4402 23.6495C57.408 23.0423 56.2468 22.7387 54.9566 22.7387C54.1217 22.7387 53.4842 22.8677 53.044 23.1258C52.6189 23.3687 52.4064 23.695 52.4064 24.1049C52.4064 24.5603 52.6341 24.8866 53.0895 25.0839C53.5601 25.2661 54.2811 25.4407 55.2526 25.6076C56.2241 25.7594 57.021 25.934 57.6433 26.1313C58.2657 26.3287 58.797 26.6626 59.2372 27.1332C59.6925 27.6037 59.9202 28.2716 59.9202 29.1369C59.9202 30.2753 59.4269 31.1861 58.4402 31.8691C57.4536 32.5522 56.1102 32.8938 54.4101 32.8938ZM68.1547 30.4802C69.4753 30.4802 70.5758 30.04 71.4562 29.1596L72.959 30.9128C72.4277 31.5656 71.7446 32.0589 70.9097 32.3928C70.0749 32.7268 69.1337 32.8938 68.0864 32.8938C66.7506 32.8938 65.5742 32.6281 64.5571 32.0968C63.5401 31.5656 62.7508 30.8294 62.1891 29.8882C61.6427 28.9319 61.3695 27.8542 61.3695 26.655C61.3695 25.471 61.6351 24.4085 62.1664 23.4673C62.7128 22.511 63.4566 21.7672 64.3978 21.236C65.3541 20.7047 66.4318 20.439 67.631 20.439C68.7694 20.439 69.8016 20.6895 70.7276 21.1904C71.6687 21.6762 72.4125 22.382 72.959 23.308C73.5054 24.2187 73.7786 25.2889 73.7786 26.5184L64.4661 28.3399C64.7545 29.0382 65.2174 29.5695 65.855 29.9338C66.4925 30.2981 67.2591 30.4802 68.1547 30.4802ZM67.631 22.716C66.5836 22.716 65.7335 23.0575 65.0808 23.7406C64.4433 24.4236 64.1245 25.342 64.1245 26.4956V26.5184L71.0008 25.1978C70.8035 24.454 70.4012 23.8544 69.794 23.399C69.202 22.9436 68.481 22.716 67.631 22.716ZM83.4121 20.439C84.9452 20.439 86.1748 20.8868 87.1007 21.7824C88.0267 22.678 88.4896 24.0062 88.4896 25.767V32.7344H85.6435V26.1313C85.6435 25.0688 85.393 24.2718 84.8921 23.7406C84.3912 23.1941 83.6778 22.9209 82.7518 22.9209C81.7044 22.9209 80.8772 23.2396 80.27 23.8772C79.6628 24.4995 79.3592 25.4027 79.3592 26.5867V32.7344H76.5131V15.8397H79.3592V21.9873C79.8298 21.4864 80.4066 21.1069 81.0897 20.8489C81.7879 20.5757 82.5621 20.439 83.4121 20.439ZM104.097 20.5757V32.7344H101.387V31.1633C100.917 31.7401 100.332 32.1727 99.6341 32.4611C98.951 32.7496 98.192 32.8938 97.3571 32.8938C96.1731 32.8938 95.1106 32.6357 94.1695 32.1196C93.2435 31.6035 92.5149 30.8749 91.9836 29.9338C91.4675 28.9926 91.2095 27.8997 91.2095 26.655C91.2095 25.4103 91.4675 24.325 91.9836 23.399C92.5149 22.4579 93.2435 21.7293 94.1695 21.2132C95.1106 20.6971 96.1731 20.439 97.3571 20.439C98.1465 20.439 98.8675 20.5757 99.5202 20.8489C100.188 21.1221 100.765 21.5244 101.251 22.0557V20.5757H104.097ZM97.6759 30.4575C98.7233 30.4575 99.5885 30.1083 100.272 29.4101C100.955 28.7118 101.296 27.7935 101.296 26.655C101.296 25.5166 100.955 24.5982 100.272 23.9C99.5885 23.2017 98.7233 22.8526 97.6759 22.8526C96.6285 22.8526 95.7633 23.2017 95.0802 23.9C94.4123 24.5982 94.0784 25.5166 94.0784 26.655C94.0784 27.7935 94.4123 28.7118 95.0802 29.4101C95.7633 30.1083 96.6285 30.4575 97.6759 30.4575ZM114.651 32.0741C114.317 32.3473 113.908 32.5522 113.422 32.6888C112.951 32.8255 112.45 32.8938 111.919 32.8938C110.583 32.8938 109.551 32.5446 108.822 31.8464C108.094 31.1481 107.73 30.1311 107.73 28.7953V17.8889H110.576V20.6667H113.832V22.9436H110.576V28.727C110.576 29.319 110.72 29.7744 111.008 30.0932C111.312 30.3967 111.729 30.5485 112.261 30.5485C112.898 30.5485 113.429 30.3816 113.854 30.0476L114.651 32.0741Z" fill="#FF6600"/>
<path d="M128.776 20.5757V30.8901C128.776 35.1707 126.673 37.311 122.468 37.311C121.36 37.311 120.298 37.1592 119.281 36.8556C118.279 36.5672 117.452 36.1422 116.799 35.5805L118.074 33.4402C118.59 33.8804 119.22 34.2295 119.964 34.4876C120.708 34.7456 121.489 34.8747 122.309 34.8747C123.554 34.8747 124.465 34.5711 125.041 33.9639C125.633 33.3719 125.929 32.4536 125.929 31.2088V30.6396C125.474 31.1405 124.92 31.5276 124.267 31.8008C123.615 32.0589 122.909 32.1879 122.15 32.1879C120.526 32.1879 119.243 31.7401 118.302 30.8445C117.376 29.949 116.913 28.6056 116.913 26.8144V20.5757H119.759V26.4501C119.759 27.5278 120.002 28.3399 120.488 28.8864C120.988 29.4177 121.694 29.6833 122.605 29.6833C123.622 29.6833 124.427 29.3721 125.019 28.7498C125.626 28.1274 125.929 27.2242 125.929 26.0402V20.5757H128.776ZM144.388 20.5757V32.7344H141.678V31.1633C141.207 31.7401 140.623 32.1727 139.925 32.4611C139.242 32.7496 138.483 32.8938 137.648 32.8938C136.464 32.8938 135.401 32.6357 134.46 32.1196C133.534 31.6035 132.806 30.8749 132.274 29.9338C131.758 28.9926 131.5 27.8997 131.5 26.655C131.5 25.4103 131.758 24.325 132.274 23.399C132.806 22.4579 133.534 21.7293 134.46 21.2132C135.401 20.6971 136.464 20.439 137.648 20.439C138.437 20.439 139.158 20.5757 139.811 20.8489C140.479 21.1221 141.056 21.5244 141.541 22.0557V20.5757H144.388ZM137.967 30.4575C139.014 30.4575 139.879 30.1083 140.562 29.4101C141.245 28.7118 141.587 27.7935 141.587 26.655C141.587 25.5166 141.245 24.5982 140.562 23.9C139.879 23.2017 139.014 22.8526 137.967 22.8526C136.919 22.8526 136.054 23.2017 135.371 23.9C134.703 24.5982 134.369 25.5166 134.369 26.655C134.369 27.7935 134.703 28.7118 135.371 29.4101C136.054 30.1083 136.919 30.4575 137.967 30.4575ZM150.821 22.3516C151.641 21.0766 153.083 20.439 155.147 20.439V23.1486C154.904 23.103 154.684 23.0803 154.487 23.0803C153.379 23.0803 152.513 23.4066 151.891 24.0593C151.269 24.6969 150.957 25.6228 150.957 26.8372V32.7344H148.111V20.5757H150.821V22.3516Z" fill="#4E148C"/>
</svg>
