<svg width="47" height="47" viewBox="0 0 47 47" fill="none" xmlns="http://www.w3.org/2000/svg">
<path d="M33.3509 19.1497C33.6103 18.8713 33.7516 18.503 33.7449 18.1225C33.7381 17.742 33.584 17.379 33.3149 17.1099C33.0458 16.8408 32.6828 16.6866 32.3022 16.6799C31.9217 16.6732 31.5535 16.8144 31.2751 17.0739L20.563 27.786L15.7259 22.9489C15.4475 22.6894 15.0792 22.5482 14.6987 22.5549C14.3182 22.5616 13.9551 22.7158 13.686 22.9849C13.4169 23.254 13.2628 23.617 13.2561 23.9975C13.2494 24.378 13.3906 24.7463 13.6501 25.0247L19.5251 30.8997C19.8004 31.1748 20.1738 31.3293 20.563 31.3293C20.9522 31.3293 21.3255 31.1748 21.6009 30.8997L33.3509 19.1497Z" fill="#FF6600"/>
<path d="M27.6838 2.3508L30.3765 4.32871C30.9131 4.72234 31.5378 4.98084 32.1958 5.08071L35.4995 5.58792C36.9865 5.81643 38.3619 6.51336 39.4255 7.57736C40.4892 8.64137 41.1857 10.0169 41.4137 11.504L41.9209 14.8058C42.0208 15.4638 42.2793 16.0885 42.6729 16.6251L44.6508 19.3178C45.5411 20.5308 46.0211 21.9962 46.0211 23.5008C46.0211 25.0054 45.5411 26.4708 44.6508 27.6838L42.6729 30.3765C42.2786 30.9131 42.0206 31.5374 41.9209 32.1958L41.4137 35.4995C41.1852 36.9865 40.4882 38.3619 39.4242 39.4255C38.3602 40.4892 36.9846 41.1857 35.4975 41.4137L32.1958 41.9209C31.5374 42.0206 30.9131 42.2786 30.3765 42.6729L27.6838 44.6508C26.4708 45.5411 25.0054 46.0211 23.5008 46.0211C21.9962 46.0211 20.5308 45.5411 19.3178 44.6508L16.6251 42.6729C16.0885 42.2786 15.4642 42.0206 14.8058 41.9209L11.5021 41.4137C10.0151 41.1852 8.63971 40.4882 7.57606 39.4242C6.51241 38.3602 5.81593 36.9846 5.58792 35.4975L5.08071 32.1958C4.98103 31.5374 4.72297 30.9131 4.32871 30.3765L2.3508 27.6838C1.46052 26.4708 0.980469 25.0054 0.980469 23.5008C0.980469 21.9962 1.46052 20.5308 2.3508 19.3178L4.32871 16.6251C4.72234 16.0885 4.98084 15.4638 5.08071 14.8058L5.58792 11.5021C5.81643 10.0151 6.51336 8.63971 7.57736 7.57606C8.64137 6.51241 10.0169 5.81593 11.504 5.58792L14.8058 5.08071C15.4638 4.98084 16.0885 4.72234 16.6251 4.32871L19.3178 2.3508C20.5308 1.46052 21.9962 0.980469 23.5008 0.980469C25.0054 0.980469 26.4708 1.46052 27.6838 2.3508ZM21.0568 4.71842L18.3641 6.69634C17.4456 7.37126 16.3772 7.81341 15.2503 7.98492L11.9486 8.49017C11.0791 8.62343 10.2748 9.03072 9.65274 9.65274C9.03072 10.2748 8.62343 11.0791 8.49017 11.9486L7.98492 15.2503C7.81311 16.3765 7.37097 17.4442 6.69634 18.3621L4.71842 21.0568C4.19849 21.7656 3.91815 22.6217 3.91815 23.5008C3.91815 24.3798 4.19849 25.236 4.71842 25.9448L6.69634 28.6375C7.37 29.556 7.81259 30.6252 7.98492 31.7513L8.49017 35.053C8.76434 36.837 10.1645 38.2373 11.9486 38.5114L15.2503 39.0167C16.3765 39.1885 17.4442 39.6306 18.3621 40.3053L21.0568 42.2832C21.7656 42.8031 22.6217 43.0834 23.5008 43.0834C24.3798 43.0834 25.236 42.8031 25.9448 42.2832L28.6375 40.3053C29.5562 39.631 30.6246 39.1896 31.7513 39.0186L35.053 38.5095C35.9222 38.3763 36.7263 37.9693 37.3483 37.3477C37.9703 36.726 38.3778 35.9222 38.5114 35.053L39.0167 31.7513C39.1885 30.6251 39.6306 29.5574 40.3053 28.6395L42.2832 25.9448C42.8031 25.236 43.0834 24.3798 43.0834 23.5008C43.0834 22.6217 42.8031 21.7656 42.2832 21.0568L40.3053 18.3641C39.631 17.4454 39.1896 16.377 39.0186 15.2503L38.5095 11.9486C38.3763 11.0793 37.9693 10.2753 37.3477 9.65326C36.726 9.03127 35.9222 8.62382 35.053 8.49017L31.7513 7.98492C30.6251 7.81311 29.5574 7.37097 28.6395 6.69634L25.9448 4.71842C25.236 4.19849 24.3798 3.91815 23.5008 3.91815C22.6217 3.91815 21.7656 4.19849 21.0568 4.71842Z" fill="#FF6600"/>
</svg>
