<svg width="22" height="22" viewBox="0 0 22 22" fill="none" xmlns="http://www.w3.org/2000/svg">
<path d="M18.372 9.145L17.275 6.495L18.75 4.75L16.75 2.75L15.015 4.233L12.308 3.12L11.685 0.75H9.731L9.099 3.151L6.454 4.266L4.75 2.75L2.75 4.75L4.203 6.539L3.123 9.196L0.75 9.75V11.75L3.151 12.406L4.266 15.05L2.75 16.75L4.75 18.75L6.541 17.29L9.147 18.362L9.75 20.75H11.75L12.354 18.363L15.005 17.265C15.447 17.582 16.75 18.75 16.75 18.75L18.75 16.75L17.266 15L18.364 12.348L20.75 11.728V9.75L18.372 9.145Z" stroke="#52525B" stroke-width="1.5" stroke-linecap="round" strokeLinejoin="round"/>
</svg>
