<svg width="189" height="61" viewBox="0 0 189 61" fill="none" xmlns="http://www.w3.org/2000/svg">
<rect width="189" height="61" rx="10" fill="#090914"/>
<path d="M73.425 44.5019L71.6976 40.0632H64.6533L62.9708 44.5019H60.6152L66.9416 28.6077H69.4766L75.803 44.5019H73.425ZM68.153 30.8944L65.4385 38.0232H70.9124L68.153 30.8944ZM79.8048 48.7612H77.7184V33.719H79.7599V35.4003C80.074 34.8324 80.5451 34.3691 81.1733 34.0104C81.8014 33.6517 82.5343 33.4724 83.3718 33.4724C84.9272 33.4724 86.1387 34.0029 87.0061 35.064C87.8885 36.1251 88.3297 37.4702 88.3297 39.0992C88.3297 40.7432 87.8735 42.1032 86.9612 43.1792C86.0639 44.2553 84.845 44.7933 83.3045 44.7933C82.5118 44.7933 81.8089 44.6289 81.1957 44.3001C80.5825 43.9713 80.1189 43.5528 79.8048 43.0447V48.7612ZM86.176 39.0992C86.176 38.0082 85.8844 37.1115 85.3011 36.4091C84.7328 35.6917 83.9626 35.333 82.9904 35.333C82.0332 35.333 81.2555 35.6917 80.6573 36.4091C80.074 37.1115 79.7824 38.0082 79.7824 39.0992C79.7824 40.2201 80.074 41.1392 80.6573 41.8566C81.2555 42.559 82.0332 42.9102 82.9904 42.9102C83.9476 42.9102 84.7178 42.559 85.3011 41.8566C85.8844 41.1392 86.176 40.2201 86.176 39.0992ZM93.1031 48.7612H91.0168V33.719H93.0582V35.4003C93.3723 34.8324 93.8434 34.3691 94.4716 34.0104C95.0997 33.6517 95.8326 33.4724 96.6701 33.4724C98.2255 33.4724 99.437 34.0029 100.304 35.064C101.187 36.1251 101.628 37.4702 101.628 39.0992C101.628 40.7432 101.172 42.1032 100.26 43.1792C99.3622 44.2553 98.1433 44.7933 96.6028 44.7933C95.8101 44.7933 95.1072 44.6289 94.494 44.3001C93.8808 43.9713 93.4172 43.5528 93.1031 43.0447V48.7612ZM99.4743 39.0992C99.4743 38.0082 99.1827 37.1115 98.5994 36.4091C98.0311 35.6917 97.2609 35.333 96.2887 35.333C95.3316 35.333 94.5538 35.6917 93.9556 36.4091C93.3723 37.1115 93.0807 38.0082 93.0807 39.0992C93.0807 40.2201 93.3723 41.1392 93.9556 41.8566C94.5538 42.559 95.3316 42.9102 96.2887 42.9102C97.2459 42.9102 98.0161 42.559 98.5994 41.8566C99.1827 41.1392 99.4743 40.2201 99.4743 39.0992ZM120.288 32.217L118.314 32.9119C118.21 32.2245 117.873 31.6042 117.305 31.0513C116.736 30.4834 115.951 30.1994 114.949 30.1994C114.067 30.1994 113.334 30.4535 112.751 30.9616C112.167 31.4697 111.875 32.0974 111.875 32.8447C111.875 33.4275 112.047 33.9207 112.391 34.3243C112.751 34.7278 113.259 35.0043 113.917 35.1537L116.295 35.6693C117.611 35.9533 118.628 36.4913 119.346 37.2834C120.064 38.0605 120.423 39.0095 120.423 40.1304C120.423 41.4157 119.915 42.5216 118.898 43.4482C117.881 44.3748 116.557 44.8381 114.927 44.8381C113.147 44.8381 111.748 44.3748 110.731 43.4482C109.729 42.5067 109.146 41.3933 108.981 40.108L111.09 39.4355C111.18 40.392 111.554 41.199 112.212 41.8566C112.87 42.5142 113.768 42.843 114.904 42.843C115.951 42.843 116.759 42.6038 117.327 42.1256C117.896 41.6473 118.18 41.0421 118.18 40.3098C118.18 39.712 117.978 39.1964 117.574 38.7629C117.17 38.3146 116.579 38.0082 115.802 37.8438L113.536 37.3506C112.354 37.0966 111.412 36.5959 110.709 35.8487C110.006 35.1014 109.654 34.1524 109.654 33.0016C109.654 31.7462 110.163 30.6478 111.18 29.7062C112.212 28.7497 113.454 28.2715 114.904 28.2715C116.535 28.2715 117.783 28.6675 118.651 29.4596C119.518 30.2517 120.064 31.1708 120.288 32.217ZM125.83 30.3115V33.719H128.163V35.6245H125.83V41.2289C125.83 41.737 125.942 42.1107 126.166 42.3498C126.405 42.5889 126.794 42.7085 127.333 42.7085C127.647 42.7085 127.923 42.6786 128.163 42.6188V44.4122C127.804 44.5467 127.325 44.614 126.727 44.614C125.8 44.614 125.067 44.3449 124.528 43.8069C123.99 43.2689 123.721 42.5142 123.721 41.5427V35.6245H121.657V33.719H122.24C122.794 33.719 123.205 33.5695 123.474 33.2706C123.758 32.9568 123.9 32.5533 123.9 32.0601V30.3115H125.83ZM133.089 41.9463C133.747 42.6188 134.547 42.955 135.489 42.955C136.431 42.955 137.224 42.6188 137.867 41.9463C138.525 41.2588 138.854 40.3098 138.854 39.0992C138.854 37.9036 138.525 36.9695 137.867 36.297C137.224 35.6095 136.431 35.2658 135.489 35.2658C134.547 35.2658 133.747 35.6095 133.089 36.297C132.446 36.9695 132.124 37.9036 132.124 39.0992C132.124 40.3098 132.446 41.2588 133.089 41.9463ZM131.518 35.0192C132.565 33.9282 133.889 33.3827 135.489 33.3827C137.089 33.3827 138.405 33.9282 139.437 35.0192C140.484 36.0952 141.008 37.4552 141.008 39.0992C141.008 40.7581 140.492 42.1331 139.46 43.2241C138.428 44.3001 137.104 44.8381 135.489 44.8381C133.874 44.8381 132.55 44.3001 131.518 43.2241C130.486 42.1331 129.97 40.7581 129.97 39.0992C129.97 37.4552 130.486 36.0952 131.518 35.0192ZM149.696 33.6069V35.8487C149.382 35.8038 149.075 35.7814 148.776 35.7814C146.802 35.7814 145.815 36.8873 145.815 39.0992V44.5019H143.706V33.719H145.77V35.6021C146.428 34.2271 147.505 33.5396 149.001 33.5396C149.24 33.5396 149.472 33.5621 149.696 33.6069ZM153.202 38.0007H159.102C159.072 37.1937 158.803 36.5361 158.295 36.028C157.786 35.5049 157.068 35.2434 156.141 35.2434C155.304 35.2434 154.616 35.5199 154.077 36.0728C153.539 36.6109 153.247 37.2535 153.202 38.0007ZM159.416 40.803L161.234 41.4306C160.92 42.432 160.336 43.2539 159.484 43.8966C158.631 44.5243 157.599 44.8381 156.388 44.8381C154.877 44.8381 153.591 44.3225 152.529 43.2913C151.482 42.2452 150.959 40.8403 150.959 39.0768C150.959 37.4328 151.467 36.0728 152.484 34.9968C153.501 33.9207 154.713 33.3827 156.119 33.3827C157.749 33.3827 159.02 33.8983 159.932 34.9295C160.845 35.9458 161.301 37.3133 161.301 39.032C161.301 39.301 161.286 39.5251 161.256 39.7045H153.135C153.15 40.661 153.464 41.4456 154.077 42.0583C154.705 42.6711 155.476 42.9775 156.388 42.9775C157.928 42.9775 158.938 42.2526 159.416 40.803Z" fill="white"/>
<path opacity="0.6" d="M62.2634 18.8555V14.9869H63.212C64.2034 14.9869 65.0238 15.6103 65.0238 16.9254C65.0238 18.2406 64.1948 18.8555 63.2035 18.8555H62.2634ZM63.2462 19.9486C64.9725 19.9486 66.2459 18.8384 66.2459 16.9254C66.2459 15.0125 64.9811 13.8937 63.2547 13.8937H61.084V19.9486H63.2462ZM69.1998 16.9169C69.1998 15.5505 70.157 14.9015 71.0886 14.9015C72.0287 14.9015 72.9858 15.5505 72.9858 16.9169C72.9858 18.2833 72.0287 18.9324 71.0886 18.9324C70.157 18.9324 69.1998 18.2833 69.1998 16.9169ZM67.9777 16.9254C67.9777 18.8726 69.4477 20.0767 71.0886 20.0767C72.738 20.0767 74.208 18.8726 74.208 16.9254C74.208 14.9698 72.738 13.7656 71.0886 13.7656C69.4477 13.7656 67.9777 14.9698 67.9777 16.9254ZM81.7816 18.0784L80.4313 13.8937H79.2092L77.8675 18.0613L76.7564 13.8937H75.5087L77.1923 19.9486H78.423L79.8075 15.6359L81.192 19.9486H82.4055L84.0806 13.8937H82.8756L81.7816 18.0784ZM91.1171 19.9486V13.8937H89.9377V17.899L87.4165 13.8937H85.9466V19.9486H87.1259V15.653L89.8778 19.9486H91.1171ZM97.4465 19.9486V18.8213H94.7459V13.8937H93.5665V19.9486H97.4465ZM100.08 16.9169C100.08 15.5505 101.037 14.9015 101.969 14.9015C102.909 14.9015 103.866 15.5505 103.866 16.9169C103.866 18.2833 102.909 18.9324 101.969 18.9324C101.037 18.9324 100.08 18.2833 100.08 16.9169ZM98.8577 16.9254C98.8577 18.8726 100.328 20.0767 101.969 20.0767C103.618 20.0767 105.088 18.8726 105.088 16.9254C105.088 14.9698 103.618 13.7656 101.969 13.7656C100.328 13.7656 98.8577 14.9698 98.8577 16.9254ZM110.997 19.9486H112.279L109.972 13.8937H108.604L106.28 19.9486H107.528L108.032 18.5651H110.493L110.997 19.9486ZM109.262 15.2004L110.1 17.4891H108.425L109.262 15.2004ZM115.301 18.8555V14.9869H116.25C117.241 14.9869 118.062 15.6103 118.062 16.9254C118.062 18.2406 117.233 18.8555 116.242 18.8555H115.301ZM116.284 19.9486C118.011 19.9486 119.284 18.8384 119.284 16.9254C119.284 15.0125 118.019 13.8937 116.293 13.8937H114.122V19.9486H116.284ZM125.418 16.9169C125.418 15.5505 126.375 14.9015 127.307 14.9015C128.247 14.9015 129.204 15.5505 129.204 16.9169C129.204 18.2833 128.247 18.9324 127.307 18.9324C126.375 18.9324 125.418 18.2833 125.418 16.9169ZM124.196 16.9254C124.196 18.8726 125.666 20.0767 127.307 20.0767C128.956 20.0767 130.426 18.8726 130.426 16.9254C130.426 14.9698 128.956 13.7656 127.307 13.7656C125.666 13.7656 124.196 14.9698 124.196 16.9254ZM137.687 19.9486V13.8937H136.508V17.899L133.987 13.8937H132.517V19.9486H133.696V15.653L136.448 19.9486H137.687ZM147.778 15.0125V13.8937H142.762V15.0125H144.676V19.9486H145.864V15.0125H147.778ZM154.685 19.9486V13.8937H153.497V16.3276H150.856V13.8937H149.677V19.9486H150.856V17.4378H153.497V19.9486H154.685ZM160.932 19.9486V18.8384H158.317V17.4378H160.684V16.3874H158.317V15.0039H160.932V13.8937H157.138V19.9486H160.932Z" fill="white"/>
<path d="M46.3685 38.1145C45.6748 39.6497 45.3436 40.3349 44.4503 41.6913C43.2058 43.5855 41.4497 45.9447 39.2737 45.9646C37.3409 45.9827 36.8442 44.7076 34.2201 44.723C31.5962 44.7384 31.0494 45.9874 29.1164 45.9693C26.9404 45.95 25.278 43.8196 24.032 41.9241C20.5494 36.6266 20.1856 30.4104 22.3334 27.1058C23.8598 24.7559 26.2688 23.3829 28.5329 23.3829C30.8384 23.3829 32.2879 24.6459 34.1948 24.6459C36.0442 24.6459 37.1706 23.3809 39.8366 23.3809C41.8517 23.3809 43.9869 24.4771 45.5086 26.3712C40.523 29.1007 41.3336 36.2123 46.3685 38.1145Z" fill="white"/>
<path d="M38.0953 20.0671C39.0641 18.8247 39.7985 17.0721 39.5314 15.2793C37.9491 15.3874 36.0996 16.3936 35.0193 17.7046C34.0385 18.8942 33.2286 20.6589 33.5437 22.3742C35.2697 22.4283 37.0571 21.3974 38.0953 20.0671Z" fill="white"/>
</svg>
