<svg width="202" height="61" viewBox="0 0 202 61" fill="none" xmlns="http://www.w3.org/2000/svg">
<rect width="202" height="61" rx="10" fill="#090914"/>
<path d="M78.783 44.5019H77.0102L76.8082 42.2601C76.4192 42.9625 75.7834 43.5678 74.9007 44.0759C74.018 44.5841 72.9557 44.8381 71.714 44.8381C70.3525 44.8381 69.0958 44.5318 67.9438 43.919C66.7918 43.2913 65.8418 42.3348 65.0938 41.0495C64.3607 39.7643 63.9941 38.2623 63.9941 36.5436C63.9941 34.8249 64.3831 33.3229 65.1611 32.0376C65.9391 30.7524 66.9115 29.8034 68.0785 29.1906C69.2604 28.5779 70.5246 28.2715 71.8711 28.2715C73.5766 28.2715 75.0577 28.7124 76.3145 29.5941C77.5861 30.4609 78.4539 31.6192 78.9177 33.0689L76.9204 33.9207C76.5613 32.77 75.933 31.8807 75.0353 31.253C74.1526 30.6104 73.0979 30.2891 71.8711 30.2891C70.3301 30.2891 69.0061 30.8346 67.8989 31.9256C66.7918 33.0166 66.2383 34.5559 66.2383 36.5436C66.2383 38.5462 66.7769 40.1005 67.8541 41.2065C68.9462 42.2975 70.2553 42.843 71.7813 42.843C72.6191 42.843 73.3597 42.7085 74.003 42.4394C74.6613 42.1704 75.17 41.8192 75.529 41.3858C75.903 40.9375 76.1798 40.4891 76.3593 40.0408C76.5538 39.5924 76.6661 39.144 76.696 38.6957H71.1754V36.7229H78.783V44.5019ZM84.161 41.9463C84.8193 42.6188 85.6197 42.955 86.5623 42.955C87.5048 42.955 88.2977 42.6188 88.9411 41.9463C89.5993 41.2588 89.9285 40.3098 89.9285 39.0992C89.9285 37.9036 89.5993 36.9695 88.9411 36.297C88.2977 35.6095 87.5048 35.2658 86.5623 35.2658C85.6197 35.2658 84.8193 35.6095 84.161 36.297C83.5177 36.9695 83.1961 37.9036 83.1961 39.0992C83.1961 40.3098 83.5177 41.2588 84.161 41.9463ZM82.5902 35.0192C83.6374 33.9282 84.9615 33.3827 86.5623 33.3827C88.1631 33.3827 89.4797 33.9282 90.512 35.0192C91.5592 36.0952 92.0829 37.4552 92.0829 39.0992C92.0829 40.7581 91.5667 42.1331 90.5344 43.2241C89.5021 44.3001 88.1781 44.8381 86.5623 44.8381C84.9465 44.8381 83.6225 44.3001 82.5902 43.2241C81.5578 42.1331 81.0417 40.7581 81.0417 39.0992C81.0417 37.4552 81.5578 36.0952 82.5902 35.0192ZM97.0035 41.9463C97.6618 42.6188 98.4622 42.955 99.4047 42.955C100.347 42.955 101.14 42.6188 101.784 41.9463C102.442 41.2588 102.771 40.3098 102.771 39.0992C102.771 37.9036 102.442 36.9695 101.784 36.297C101.14 35.6095 100.347 35.2658 99.4047 35.2658C98.4622 35.2658 97.6618 35.6095 97.0035 36.297C96.3602 36.9695 96.0385 37.9036 96.0385 39.0992C96.0385 40.3098 96.3602 41.2588 97.0035 41.9463ZM95.4326 35.0192C96.4799 33.9282 97.8039 33.3827 99.4047 33.3827C101.006 33.3827 102.322 33.9282 103.354 35.0192C104.402 36.0952 104.925 37.4552 104.925 39.0992C104.925 40.7581 104.409 42.1331 103.377 43.2241C102.345 44.3001 101.021 44.8381 99.4047 44.8381C97.789 44.8381 96.4649 44.3001 95.4326 43.2241C94.4003 42.1331 93.8842 40.7581 93.8842 39.0992C93.8842 37.4552 94.4003 36.0952 95.4326 35.0192ZM106.839 45.0847L108.881 44.614C108.956 45.3762 109.263 46.0038 109.801 46.497C110.34 47.0052 111.013 47.2592 111.821 47.2592C114.02 47.2592 115.12 46.0935 115.12 43.7621V42.2153C114.85 42.7383 114.424 43.1643 113.841 43.4931C113.272 43.8219 112.599 43.9863 111.821 43.9863C110.385 43.9863 109.195 43.5005 108.253 42.5291C107.325 41.5427 106.861 40.2873 106.861 38.7629C106.861 37.2834 107.325 36.0429 108.253 35.0416C109.18 34.0253 110.37 33.5172 111.821 33.5172C113.467 33.5172 114.574 34.0851 115.142 35.221V33.719H117.229V43.6948C117.229 44.4122 117.132 45.0773 116.938 45.69C116.758 46.3177 116.466 46.8931 116.062 47.4162C115.658 47.9392 115.09 48.3502 114.357 48.6491C113.639 48.948 112.793 49.0975 111.821 49.0975C110.489 49.0975 109.36 48.7164 108.432 47.9542C107.505 47.2069 106.973 46.2504 106.839 45.0847ZM112.135 42.2153C113.048 42.2153 113.788 41.9014 114.357 41.2737C114.925 40.6311 115.209 39.7942 115.209 38.7629C115.209 37.7317 114.925 36.9023 114.357 36.2746C113.788 35.6319 113.048 35.3106 112.135 35.3106C111.207 35.3106 110.452 35.6245 109.868 36.2522C109.3 36.8799 109.016 37.7168 109.016 38.7629C109.016 39.824 109.292 40.6684 109.846 41.2961C110.414 41.9089 111.177 42.2153 112.135 42.2153ZM122.707 44.5019H120.598V28.2715H122.707V44.5019ZM127.665 38.0007H133.567C133.537 37.1937 133.268 36.5361 132.759 36.028C132.25 35.5049 131.532 35.2434 130.604 35.2434C129.767 35.2434 129.078 35.5199 128.54 36.0728C128.001 36.6109 127.71 37.2535 127.665 38.0007ZM133.881 40.803L135.699 41.4306C135.384 42.432 134.801 43.2539 133.948 43.8966C133.095 44.5243 132.063 44.8381 130.851 44.8381C129.34 44.8381 128.054 44.3225 126.991 43.2913C125.944 42.2452 125.421 40.8403 125.421 39.0768C125.421 37.4328 125.929 36.0728 126.947 34.9968C127.964 33.9207 129.176 33.3827 130.582 33.3827C132.213 33.3827 133.484 33.8983 134.397 34.9295C135.31 35.9458 135.766 37.3133 135.766 39.032C135.766 39.301 135.751 39.5251 135.721 39.7045H127.597C127.612 40.661 127.926 41.4456 128.54 42.0583C129.168 42.6711 129.939 42.9775 130.851 42.9775C132.392 42.9775 133.402 42.2526 133.881 40.803ZM146.493 36.028H149.68C150.622 36.028 151.37 35.7889 151.924 35.3106C152.477 34.8174 152.754 34.1599 152.754 33.3379C152.754 32.5009 152.477 31.8359 151.924 31.3427C151.37 30.8346 150.622 30.5805 149.68 30.5805H146.493V36.028ZM150.084 38.0007H146.493V44.5019H144.294V28.6077H150.084C151.535 28.6077 152.717 29.0561 153.629 29.9528C154.542 30.8495 154.998 31.9704 154.998 33.3155C154.998 34.6755 154.542 35.7963 153.629 36.6781C152.717 37.5599 151.535 38.0007 150.084 38.0007ZM159.35 44.5019H157.24V28.2715H159.35V44.5019ZM162.265 41.61C162.265 40.6834 162.564 39.9436 163.163 39.3906C163.761 38.8227 164.554 38.4715 165.541 38.337L168.459 37.9111C169.012 37.8364 169.289 37.5673 169.289 37.104C169.289 36.5361 169.095 36.0728 168.706 35.7141C168.317 35.3555 167.733 35.1761 166.955 35.1761C166.237 35.1761 165.669 35.3779 165.25 35.7814C164.831 36.17 164.584 36.693 164.509 37.3506L162.489 36.8799C162.594 35.8487 163.065 35.0117 163.903 34.3691C164.741 33.7115 165.743 33.3827 166.91 33.3827C168.436 33.3827 169.566 33.7563 170.299 34.5036C171.032 35.2359 171.399 36.1774 171.399 37.3282V42.7309C171.399 43.3735 171.444 43.9638 171.533 44.5019H169.469C169.394 44.0535 169.356 43.5678 169.356 43.0447C169.057 43.523 168.616 43.9414 168.032 44.3001C167.464 44.6588 166.746 44.8381 165.878 44.8381C164.816 44.8381 163.948 44.5243 163.275 43.8966C162.602 43.2539 162.265 42.4917 162.265 41.61ZM166.17 43.0671C167.112 43.0671 167.868 42.8131 168.436 42.3049C169.005 41.7968 169.289 40.9898 169.289 39.8838V39.3906L165.99 39.8838C165.512 39.9586 165.13 40.1304 164.846 40.3994C164.562 40.6684 164.419 41.0346 164.419 41.4979C164.419 41.9164 164.576 42.2825 164.891 42.5964C165.22 42.9102 165.646 43.0671 166.17 43.0671ZM177.16 49.0078H174.848L177.541 43.3137L172.896 33.719H175.319L178.686 41.1616L181.917 33.719H184.184L177.16 49.0078Z" fill="white"/>
<path opacity="0.6" d="M70.2343 19.9486V16.7973H67.2079V17.8222H69.1229C69.0545 18.2492 68.6185 19.0007 67.4986 19.0007C66.4812 19.0007 65.5836 18.2919 65.5836 16.9254C65.5836 15.4907 66.5753 14.8673 67.49 14.8673C68.4732 14.8673 68.9776 15.4907 69.1315 16.0287L70.26 15.6274C69.9607 14.6965 69.0802 13.7656 67.49 13.7656C65.8486 13.7656 64.3867 14.9698 64.3867 16.9254C64.3867 18.8811 65.7802 20.0767 67.4131 20.0767C68.3279 20.0767 68.9263 19.6668 69.1999 19.2569L69.2768 19.9486H70.2343ZM76.8235 19.9486V18.8384H74.2075V17.4378H76.5756V16.3874H74.2075V15.0039H76.8235V13.8937H73.0277V19.9486H76.8235ZM84.1693 15.0125V13.8937H79.151V15.0125H81.066V19.9486H82.2543V15.0125H84.1693ZM91.5148 19.9486V13.8937H90.318V19.9486H91.5148ZM98.9634 15.0125V13.8937H93.945V15.0125H95.86V19.9486H97.0484V15.0125H98.9634ZM105.975 16.9169C105.975 15.5505 106.933 14.9015 107.865 14.9015C108.805 14.9015 109.763 15.5505 109.763 16.9169C109.763 18.2833 108.805 18.9324 107.865 18.9324C106.933 18.9324 105.975 18.2833 105.975 16.9169ZM104.753 16.9254C104.753 18.8726 106.223 20.0767 107.865 20.0767C109.515 20.0767 110.985 18.8726 110.985 16.9254C110.985 14.9698 109.515 13.7656 107.865 13.7656C106.223 13.7656 104.753 14.9698 104.753 16.9254ZM118.784 19.9486V13.8937H117.604V17.899L115.081 13.8937H113.611V19.9486H114.791V15.653L117.544 19.9486H118.784Z" fill="white"/>
<path d="M29.9189 44.0649C29.2859 44.4735 28.5257 44.5971 27.8125 44.4288L40.3445 31.9102L44.4061 35.9674L29.9189 44.0649Z" fill="#EB4132"/>
<path d="M26.2577 43.4095C25.9083 42.9453 25.707 42.3754 25.707 41.7724V19.473C25.707 18.87 25.9083 18.3001 26.2577 17.8359L39.0581 30.6226L26.2577 43.4095Z" fill="#4285F5"/>
<path d="M49.7083 33.004L46.0579 35.0442L41.6328 30.6238L46.0583 26.2031L49.7089 28.2436C50.5835 28.733 51.1056 29.6228 51.1056 30.6238C51.1056 31.6248 50.5835 32.5144 49.7083 33.004Z" fill="#FFBB00"/>
<path d="M40.3456 29.3383L27.8145 16.8204C28.0198 16.772 28.229 16.7461 28.438 16.7461C28.9548 16.7461 29.4697 16.8929 29.9201 17.1836L44.4074 25.2809L40.3456 29.3383Z" fill="#00AE45"/>
</svg>
