<svg width="47" height="47" viewBox="0 0 47 47" fill="none" xmlns="http://www.w3.org/2000/svg">
<path d="M33.2918 21.1605C33.2918 20.4829 33.2918 20.1441 33.3936 19.8425C33.6893 18.9652 34.4707 18.6264 35.254 18.27C36.1314 17.8685 36.57 17.6688 37.0067 17.6335C37.5002 17.5944 37.9957 17.7001 38.4187 17.9371C38.9788 18.2504 39.3705 18.8497 39.77 19.3353C41.6167 21.5796 42.541 22.7017 42.8778 23.9374C43.152 24.9362 43.152 25.9819 42.8778 26.9787C42.3863 28.7843 40.8294 30.2961 39.676 31.6983C39.0865 32.4131 38.7908 32.7715 38.4187 32.981C37.9884 33.2196 37.4971 33.3253 37.0067 33.2845C36.57 33.2493 36.1314 33.0495 35.2521 32.6481C34.4687 32.2917 33.6893 31.9529 33.3936 31.0755C33.2918 30.774 33.2918 30.4352 33.2918 29.7576V21.1605ZM13.7085 21.1605C13.7085 20.3067 13.685 19.541 12.9956 18.9417C12.745 18.7243 12.412 18.5735 11.7482 18.27C10.8689 17.8705 10.4302 17.6688 9.9935 17.6335C8.68729 17.5278 7.98425 18.4208 7.23225 19.3373C5.38358 21.5796 4.45925 22.7017 4.12046 23.9394C3.84787 24.9348 3.84787 25.9852 4.12046 26.9807C4.61396 28.7843 6.17279 30.2981 7.32429 31.6983C8.05083 32.5796 8.74604 33.3844 9.9935 33.2845C10.4302 33.2493 10.8689 33.0495 11.7482 32.6481C12.414 32.3465 12.745 32.1938 12.9956 31.9764C13.685 31.3771 13.7085 30.6114 13.7085 29.7595V21.1605Z" stroke="#FF6600" stroke-width="3"/>
<path d="M9.79102 17.625C9.79102 11.1351 15.9284 5.875 23.4993 5.875C31.0703 5.875 37.2077 11.1351 37.2077 17.625" stroke="#FF6600" stroke-width="3" stroke-linecap="square" strokeLinejoin="round"/>
<path d="M37.207 33.2891V34.8557C37.207 38.3161 33.7016 41.1224 29.3737 41.1224H25.457" stroke="#FF6600" stroke-width="3" stroke-linecap="round" strokeLinejoin="round"/>
</svg>
