<svg width="1720" height="497" viewBox="0 0 1720 497" fill="none" xmlns="http://www.w3.org/2000/svg">
<g clip-path="url(#clip0_2031_127)">
<rect width="1720" height="497" rx="42" fill="#F4F4F4"/>
<path d="M-189.994 413.255C-55.4743 299.915 138.466 296.946 243.254 406.562C348.087 516.227 324.043 696.922 189.523 810.263L106.232 723.133C181.711 659.537 195.25 558.15 136.412 496.6C77.6095 435.088 -31.2595 436.751 -106.739 500.347L-189.994 413.255Z" fill="#4E148C" fill-opacity="0.2"/>
<path d="M1941.67 133.094C1782.26 267.085 1552.65 270.32 1428.74 140.392C1304.77 10.4076 1333.47 -203.486 1492.88 -337.477L1591.37 -234.202C1501.93 -159.019 1485.77 -39.0058 1555.35 33.9495C1624.88 106.859 1753.78 105.048 1843.22 29.865L1941.67 133.094Z" fill="#4E148C" fill-opacity="0.2"/>
</g>
<defs>
<clipPath id="clip0_2031_127">
<rect width="1720" height="497" rx="42" fill="white"/>
</clipPath>
</defs>
</svg>
