<svg width="362" height="283" viewBox="0 0 362 283" fill="none" xmlns="http://www.w3.org/2000/svg">
<g clip-path="url(#clip0_2031_163)">
<rect width="362" height="283" rx="32" fill="#F4F4F4"/>
<path d="M-22.547 234.927C20.6771 198.508 82.9946 197.554 116.665 232.776C150.35 268.014 142.625 326.075 99.4004 362.494L72.637 334.497C96.8902 314.063 101.241 281.485 82.3344 261.707C63.4399 241.942 28.4579 242.477 4.20462 262.911L-22.547 234.927Z" fill="#4E148C" fill-opacity="0.2"/>
<path d="M460.534 49.8225C401.691 99.4015 316.855 100.7 271.017 52.7502C225.16 4.77944 235.677 -74.2628 294.521 -123.842L330.955 -85.7282C297.938 -57.9093 292.015 -13.5595 317.753 13.3647C343.475 40.2721 391.098 39.5447 424.116 11.7257L460.534 49.8225Z" fill="#4E148C" fill-opacity="0.2"/>
</g>
<defs>
<clipPath id="clip0_2031_163">
<rect width="362" height="283" rx="32" fill="white"/>
</clipPath>
</defs>
</svg>
