<svg width="157" height="47" viewBox="0 0 157 47" fill="none" xmlns="http://www.w3.org/2000/svg">
<path d="M11.8046 17.3759C12.8417 14.8442 15.087 15.0667 16.2925 16.3953C17.4467 17.6674 15.8679 19.5323 15.2369 20.665C16.2167 21.0035 17.7366 21.6692 18.5351 22.2002C19.5295 22.9834 19.7582 24.2518 19.0521 25.2155C18.4266 26.0692 17.8478 26.4122 16.4252 25.8813C15.6024 25.5526 14.2723 25.1481 13.3869 24.8555C12.3223 27.062 11.316 29.2358 10.3966 31.4783C9.88235 32.7334 8.90943 34.5347 8.59185 35.7821C8.36182 36.6431 8.31595 37.525 8.45494 38.3958C8.8038 40.5327 10.947 42.8448 14.0131 42.4257C16.8047 42.0442 17.4246 40.7023 18.23 39.2186C19.0354 37.7349 23.3767 38.1581 23.3767 38.1581C22.2509 41.3486 21.2287 44.2083 17.0952 46.2465C15.6538 46.9568 12.8748 47.0679 11.2486 46.6843C8.8594 46.1221 6.69326 44.6287 5.59803 42.9838C3.79535 40.2777 3.39368 36.819 4.47987 33.9162C4.93158 32.7084 5.55217 31.527 6.0699 30.3358C7.16582 27.8313 8.29302 25.3337 9.45218 22.8444C10.2701 21.0299 11.0547 19.2064 11.8046 17.3759Z" fill="#FF6600"/>
<path d="M31.4437 21.193C33.1601 23.3235 31.8812 25.1824 30.1357 25.5967C28.4645 25.9933 27.5935 23.7104 26.9062 22.6109C26.1367 23.3057 24.82 24.3152 23.9695 24.7582C22.8035 25.251 21.5823 24.8389 21.0792 23.7552C20.6336 22.7954 20.6126 22.1228 21.7644 21.1334C22.4495 20.5715 23.4458 19.6019 24.1295 18.9678C22.7112 16.9702 21.2933 15.0395 19.7732 13.1517C18.9224 12.0954 17.8146 10.3738 16.8755 9.49346C16.2325 8.87633 15.4824 8.41041 14.6527 8.11174C12.6129 7.38559 9.5534 8.14629 8.44015 11.0337C7.42656 13.6626 8.30249 14.8533 9.21299 16.275C10.1235 17.6966 7.65698 21.2942 7.65698 21.2942C5.40645 18.768 3.39563 16.4922 3.60618 11.8882C3.68003 10.2831 4.92432 7.79569 6.04533 6.55678C7.69113 4.73586 10.0447 3.55986 12.014 3.39485C15.2542 3.1226 18.477 4.44062 20.4947 6.79323C21.3344 7.77192 22.0694 8.88574 22.8626 9.91419C24.5269 12.0831 26.17 14.276 27.7903 16.4929C28.9845 18.0852 30.2026 19.6527 31.4437 21.193Z" fill="#FF6600"/>
<path d="M18.4601 36.7403C15.7742 37.2606 14.7295 35.2607 15.1799 33.5242C15.6112 31.8616 18.0364 32.1598 19.3297 32.0666C19.0756 31.0615 18.7993 29.4255 18.8057 28.4666C18.9156 27.2055 19.8511 26.319 21.0442 26.3813C22.1011 26.4364 22.7053 26.7326 23.041 28.2134C23.2171 29.0817 23.6079 30.4159 23.8486 31.3168C26.2776 30.9978 28.6473 30.6478 31.0269 30.1875C32.3585 29.9297 34.3983 29.756 35.6157 29.3379C36.462 29.0583 37.2247 28.6132 37.8768 28.0197C39.4729 26.5565 40.2318 23.4966 38.2006 21.1619C36.3513 19.0362 34.8892 19.2534 33.2067 19.393C31.5243 19.5327 29.4986 15.6697 29.4986 15.6697C32.7841 14.8624 35.7362 14.1499 39.7068 16.4898C41.0909 17.3059 42.7072 19.5693 43.2778 21.1397C44.1172 23.4461 44.0556 26.0765 43.2801 27.8942C42.005 30.8853 39.3323 33.1171 36.3091 33.7998C35.0513 34.0841 33.7231 34.2126 32.443 34.4325C29.7475 34.8888 27.0407 35.3152 24.3233 35.7102C22.3574 36.0207 20.4021 36.364 18.4601 36.7403Z" fill="#4E148C"/>
<path d="M54.4101 32.8947C53.4234 32.8947 52.4596 32.7657 51.5184 32.5077C50.5773 32.2496 49.8259 31.9233 49.2643 31.5286L50.3572 29.3655C50.9037 29.7298 51.5564 30.0258 52.3153 30.2535C53.0895 30.466 53.8485 30.5723 54.5923 30.5723C56.2924 30.5723 57.1424 30.1245 57.1424 29.2289C57.1424 28.8039 56.9223 28.5079 56.4821 28.3409C56.0571 28.1739 55.3664 28.0146 54.4101 27.8628C53.4083 27.711 52.5886 27.5364 51.951 27.3391C51.3287 27.1417 50.7822 26.8002 50.3117 26.3145C49.8563 25.8135 49.6286 25.1229 49.6286 24.2425C49.6286 23.0888 50.1067 22.1705 51.063 21.4874C52.0345 20.7891 53.34 20.44 54.9793 20.44C55.8142 20.44 56.6491 20.5387 57.4839 20.736C58.3188 20.9182 59.0019 21.1686 59.5332 21.4874L58.4402 23.6505C57.408 23.0433 56.2468 22.7397 54.9566 22.7397C54.1217 22.7397 53.4842 22.8687 53.044 23.1268C52.6189 23.3696 52.4064 23.696 52.4064 24.1058C52.4064 24.5612 52.6341 24.8876 53.0895 25.0849C53.5601 25.2671 54.2811 25.4416 55.2526 25.6086C56.2241 25.7604 57.021 25.935 57.6433 26.1323C58.2657 26.3296 58.797 26.6636 59.2372 27.1341C59.6925 27.6047 59.9202 28.2726 59.9202 29.1378C59.9202 30.2763 59.4269 31.1871 58.4402 31.8701C57.4536 32.5532 56.1102 32.8947 54.4101 32.8947ZM68.1547 30.4812C69.4753 30.4812 70.5758 30.041 71.4562 29.1606L72.959 30.9138C72.4277 31.5665 71.7446 32.0599 70.9097 32.3938C70.0749 32.7278 69.1337 32.8947 68.0864 32.8947C66.7506 32.8947 65.5742 32.6291 64.5571 32.0978C63.5401 31.5665 62.7508 30.8303 62.1891 29.8892C61.6427 28.9329 61.3695 27.8552 61.3695 26.656C61.3695 25.472 61.6351 24.4094 62.1664 23.4683C62.7128 22.512 63.4566 21.7682 64.3978 21.2369C65.3541 20.7057 66.4318 20.44 67.631 20.44C68.7694 20.44 69.8016 20.6905 70.7276 21.1914C71.6687 21.6771 72.4125 22.383 72.959 23.3089C73.5054 24.2197 73.7786 25.2898 73.7786 26.5194L64.4661 28.3409C64.7545 29.0392 65.2174 29.5704 65.855 29.9347C66.4925 30.2991 67.2591 30.4812 68.1547 30.4812ZM67.631 22.7169C66.5836 22.7169 65.7335 23.0585 65.0808 23.7415C64.4433 24.4246 64.1245 25.343 64.1245 26.4966V26.5194L71.0008 25.1988C70.8035 24.455 70.4012 23.8554 69.794 23.4C69.202 22.9446 68.481 22.7169 67.631 22.7169ZM83.4121 20.44C84.9452 20.44 86.1748 20.8878 87.1007 21.7834C88.0267 22.679 88.4896 24.0072 88.4896 25.768V32.7354H85.6435V26.1323C85.6435 25.0697 85.393 24.2728 84.8921 23.7415C84.3912 23.1951 83.6778 22.9219 82.7518 22.9219C81.7044 22.9219 80.8772 23.2406 80.27 23.8782C79.6628 24.5005 79.3592 25.4037 79.3592 26.5877V32.7354H76.5131V15.8407H79.3592V21.9883C79.8298 21.4874 80.4066 21.1079 81.0897 20.8499C81.7879 20.5766 82.5621 20.44 83.4121 20.44ZM104.097 20.5766V32.7354H101.387V31.1643C100.917 31.7411 100.332 32.1737 99.6341 32.4621C98.951 32.7505 98.192 32.8947 97.3571 32.8947C96.1731 32.8947 95.1106 32.6367 94.1695 32.1206C93.2435 31.6045 92.5149 30.8759 91.9836 29.9347C91.4675 28.9936 91.2095 27.9007 91.2095 26.656C91.2095 25.4113 91.4675 24.326 91.9836 23.4C92.5149 22.4589 93.2435 21.7303 94.1695 21.2142C95.1106 20.6981 96.1731 20.44 97.3571 20.44C98.1465 20.44 98.8675 20.5766 99.5202 20.8499C100.188 21.1231 100.765 21.5253 101.251 22.0566V20.5766H104.097ZM97.6759 30.4584C98.7233 30.4584 99.5885 30.1093 100.272 29.4111C100.955 28.7128 101.296 27.7944 101.296 26.656C101.296 25.5175 100.955 24.5992 100.272 23.9009C99.5885 23.2027 98.7233 22.8535 97.6759 22.8535C96.6285 22.8535 95.7633 23.2027 95.0802 23.9009C94.4123 24.5992 94.0784 25.5175 94.0784 26.656C94.0784 27.7944 94.4123 28.7128 95.0802 29.4111C95.7633 30.1093 96.6285 30.4584 97.6759 30.4584ZM114.651 32.075C114.317 32.3483 113.908 32.5532 113.422 32.6898C112.951 32.8264 112.45 32.8947 111.919 32.8947C110.583 32.8947 109.551 32.5456 108.822 31.8474C108.094 31.1491 107.73 30.1321 107.73 28.7963V17.8899H110.576V20.6677H113.832V22.9446H110.576V28.728C110.576 29.32 110.72 29.7754 111.008 30.0941C111.312 30.3977 111.729 30.5495 112.261 30.5495C112.898 30.5495 113.429 30.3825 113.854 30.0486L114.651 32.075Z" fill="#FF6600"/>
<path d="M128.776 20.5766V30.8911C128.776 35.1716 126.673 37.3119 122.468 37.3119C121.36 37.3119 120.298 37.1602 119.281 36.8566C118.279 36.5682 117.452 36.1431 116.799 35.5815L118.074 33.4412C118.59 33.8814 119.22 34.2305 119.964 34.4886C120.708 34.7466 121.489 34.8757 122.309 34.8757C123.554 34.8757 124.465 34.5721 125.041 33.9649C125.633 33.3729 125.929 32.4545 125.929 31.2098V30.6406C125.474 31.1415 124.92 31.5286 124.267 31.8018C123.615 32.0599 122.909 32.1889 122.15 32.1889C120.526 32.1889 119.243 31.7411 118.302 30.8455C117.376 29.9499 116.913 28.6065 116.913 26.8154V20.5766H119.759V26.4511C119.759 27.5288 120.002 28.3409 120.488 28.8874C120.988 29.4186 121.694 29.6843 122.605 29.6843C123.622 29.6843 124.427 29.3731 125.019 28.7508C125.626 28.1284 125.929 27.2252 125.929 26.0412V20.5766H128.776ZM144.388 20.5766V32.7354H141.678V31.1643C141.207 31.7411 140.623 32.1737 139.925 32.4621C139.242 32.7505 138.483 32.8947 137.648 32.8947C136.464 32.8947 135.401 32.6367 134.46 32.1206C133.534 31.6045 132.806 30.8759 132.274 29.9347C131.758 28.9936 131.5 27.9007 131.5 26.656C131.5 25.4113 131.758 24.326 132.274 23.4C132.806 22.4589 133.534 21.7303 134.46 21.2142C135.401 20.6981 136.464 20.44 137.648 20.44C138.437 20.44 139.158 20.5766 139.811 20.8499C140.479 21.1231 141.056 21.5253 141.541 22.0566V20.5766H144.388ZM137.967 30.4584C139.014 30.4584 139.879 30.1093 140.562 29.4111C141.245 28.7128 141.587 27.7944 141.587 26.656C141.587 25.5175 141.245 24.5992 140.562 23.9009C139.879 23.2027 139.014 22.8535 137.967 22.8535C136.919 22.8535 136.054 23.2027 135.371 23.9009C134.703 24.5992 134.369 25.5175 134.369 26.656C134.369 27.7944 134.703 28.7128 135.371 29.4111C136.054 30.1093 136.919 30.4584 137.967 30.4584ZM150.821 22.3526C151.641 21.0776 153.083 20.44 155.147 20.44V23.1495C154.904 23.104 154.684 23.0812 154.487 23.0812C153.379 23.0812 152.513 23.4076 151.891 24.0603C151.269 24.6978 150.957 25.6238 150.957 26.8381V32.7354H148.111V20.5766H150.821V22.3526Z" fill="#4E148C"/>
</svg>
